<svg xmlns="http://www.w3.org/2000/svg" xmlns:xlink="http://www.w3.org/1999/xlink" width="16pt" height="16pt" viewBox="0 0 16 16" fill="currentColor" version="1.1">
<path d="M 0.699219 5.511719 C 1 5.511719 1.238281 5.265625 1.238281 4.964844 L 1.238281 2.355469 C 1.238281 1.753906 1.746094 1.265625 2.347656 1.265625 L 4.957031 1.265625 C 5.257812 1.265625 5.503906 1.015625 5.503906 0.71875 C 5.503906 0.417969 5.257812 0.167969 4.957031 0.167969 L 2.34375 0.167969 C 1.144531 0.167969 0.160156 1.15625 0.160156 2.355469 L 0.160156 4.964844 C 0.160156 5.265625 0.398438 5.511719 0.699219 5.511719 Z M 0.699219 5.511719 "/>
<path d="M 13.664062 0.167969 L 11.050781 0.167969 C 10.75 0.167969 10.507812 0.414062 10.507812 0.714844 C 10.507812 1.015625 10.75 1.261719 11.050781 1.261719 L 13.664062 1.261719 C 14.265625 1.261719 14.726562 1.753906 14.726562 2.355469 L 14.726562 4.964844 C 14.726562 5.265625 14.976562 5.507812 15.273438 5.507812 C 15.574219 5.507812 15.824219 5.265625 15.824219 4.964844 L 15.824219 2.355469 C 15.824219 1.15625 14.863281 0.167969 13.664062 0.167969 Z M 13.664062 0.167969 "/>
<path d="M 15.273438 10.515625 C 14.972656 10.515625 14.726562 10.761719 14.726562 11.0625 L 14.726562 13.671875 C 14.726562 14.273438 14.265625 14.734375 13.664062 14.734375 L 11.050781 14.734375 C 10.75 14.734375 10.507812 14.984375 10.507812 15.28125 C 10.507812 15.582031 10.75 15.832031 11.050781 15.832031 L 13.664062 15.832031 C 14.863281 15.832031 15.824219 14.871094 15.824219 13.671875 L 15.824219 11.0625 C 15.824219 10.761719 15.574219 10.515625 15.273438 10.515625 Z M 15.273438 10.515625 "/>
<path d="M 4.957031 14.734375 L 2.34375 14.734375 C 1.746094 14.734375 1.238281 14.273438 1.238281 13.671875 L 1.238281 11.0625 C 1.238281 10.761719 1 10.515625 0.699219 10.515625 C 0.398438 10.515625 0.160156 10.761719 0.160156 11.0625 L 0.160156 13.671875 C 0.160156 14.871094 1.144531 15.832031 2.34375 15.832031 L 4.957031 15.832031 C 5.257812 15.832031 5.5 15.582031 5.5 15.28125 C 5.5 14.984375 5.257812 14.734375 4.957031 14.734375 Z M 4.957031 14.734375 "/>
<path d="M 15.296875 7.425781 L 0.714844 7.425781 C 0.414062 7.425781 0.167969 7.664062 0.167969 7.964844 C 0.167969 8.265625 0.414062 8.503906 0.714844 8.503906 L 15.296875 8.503906 C 15.597656 8.503906 15.839844 8.265625 15.839844 7.964844 C 15.839844 7.664062 15.597656 7.425781 15.296875 7.425781 Z M 15.296875 7.425781 "/>
</svg>